<?xml version="1.0" standalone="no"?>
<!DOCTYPE svg PUBLIC "-//W3C//DTD SVG 20010904//EN"
 "http://www.w3.org/TR/2001/REC-SVG-20010904/DTD/svg10.dtd">
<svg version="1.0" xmlns="http://www.w3.org/2000/svg"
 width="1000.000000pt" height="1000.000000pt" viewBox="0 0 1000.000000 1000.000000"
 preserveAspectRatio="xMidYMid meet">
<metadata>
Created by potrace 1.14, written by Peter Selinger 2001-2017
</metadata>
<g transform="translate(0.000000,1000.000000) scale(0.100000,-0.100000)"
fill="#000000" stroke="none">
<path d="M8086 9554 c-54 -19 -65 -31 -96 -99 -15 -33 -33 -65 -41 -72 -8 -6
-72 -37 -144 -68 -376 -163 -734 -390 -1075 -681 -156 -132 -412 -411 -545
-594 -78 -106 -215 -322 -215 -339 0 -3 -10 -22 -23 -41 -28 -42 -111 -227
-163 -360 -58 -151 -172 -534 -273 -920 -38 -148 -201 -784 -205 -805 -2 -5
-8 -30 -15 -55 -7 -25 -15 -56 -18 -69 -8 -44 -133 -472 -179 -613 -195 -596
-424 -902 -698 -934 -28 -4 -53 -7 -56 -7 -24 -5 -123 19 -164 40 -92 46 -131
99 -266 363 -133 261 -205 375 -248 391 -50 19 -195 15 -342 -11 -135 -23
-319 -66 -515 -120 -213 -58 -796 -256 -925 -313 -19 -9 -96 -41 -170 -73
-366 -153 -669 -326 -711 -407 -11 -19 -12 -156 -4 -277 6 -84 16 -192 21
-221 2 -15 6 -47 9 -70 10 -83 54 -306 80 -410 184 -732 548 -1311 1015 -1614
146 -95 276 -153 435 -195 166 -43 244 -53 425 -53 241 0 392 27 655 116 421
142 766 328 1109 596 146 113 167 133 332 296 321 320 577 685 803 1146 93
190 98 200 177 396 122 304 203 564 310 998 4 17 8 35 10 40 3 11 33 149 40
180 27 132 30 150 44 225 5 30 12 69 15 85 12 71 36 222 41 260 2 22 9 67 14
100 5 33 12 83 15 110 4 28 8 57 10 65 2 8 7 48 10 89 4 41 8 82 10 92 2 10 6
50 10 91 3 40 8 89 10 108 2 19 6 64 9 100 3 36 8 90 11 120 2 30 7 87 10 125
3 39 7 97 10 130 2 33 7 107 10 165 5 99 11 172 20 230 2 14 7 50 10 80 4 30
16 100 27 155 10 55 21 111 24 125 12 63 70 256 110 368 135 372 357 719 639
996 58 57 127 117 268 232 81 66 326 211 367 217 14 2 57 -7 95 -21 110 -38
194 -22 221 43 44 106 -36 366 -151 493 -72 80 -121 100 -189 76z"/>
<path d="M2447 8976 c-233 -96 -274 -337 -77 -458 32 -19 151 -55 211 -63 85
-11 104 -16 153 -43 66 -36 82 -72 57 -128 -20 -44 -74 -101 -138 -145 -43
-30 -51 -43 -34 -53 14 -9 124 51 158 86 94 97 88 206 -14 275 -58 38 -141 62
-260 75 -5 0 -32 9 -62 19 -98 34 -161 100 -161 169 1 82 85 189 192 245 56
29 72 45 46 45 -7 0 -39 -11 -71 -24z"/>
<path d="M2585 8895 c-63 -14 -94 -34 -101 -62 -9 -35 3 -67 38 -103 69 -68
150 -84 300 -61 253 41 442 -26 506 -179 69 -165 -33 -331 -257 -418 -116 -45
-249 -54 -386 -28 -74 14 -164 35 -331 76 -269 67 -471 41 -663 -84 -67 -44
-151 -123 -195 -186 -14 -19 -30 -41 -37 -48 -21 -24 -78 -158 -97 -228 -19
-69 -24 -240 -8 -307 17 -71 68 -168 124 -232 58 -68 201 -143 312 -164 56
-10 280 -8 335 4 64 13 117 28 295 85 102 32 219 68 260 79 41 12 89 25 105
30 53 17 127 24 235 25 137 1 207 -9 283 -41 203 -87 318 -251 318 -453 0
-237 -189 -497 -418 -575 -69 -24 -81 -26 -148 -29 -90 -4 -191 21 -402 100
-267 99 -425 104 -581 18 -97 -54 -175 -143 -220 -251 -61 -144 -16 -241 133
-291 58 -20 104 -25 325 -38 213 -12 348 -56 437 -143 57 -54 71 -107 49 -178
-27 -85 -82 -133 -261 -228 -313 -167 -410 -284 -345 -420 10 -22 30 -53 44
-68 21 -23 29 -26 45 -17 19 10 18 12 -15 61 -19 28 -35 56 -35 63 -1 6 -3 22
-4 36 -5 51 45 120 137 188 52 38 241 152 253 152 10 0 117 72 152 103 48 42
83 118 83 182 -1 128 -105 228 -295 283 -80 24 -129 30 -299 38 -256 11 -318
27 -356 89 -40 65 -28 141 37 245 55 86 162 170 235 186 96 20 128 23 191 19
91 -6 154 -23 341 -90 238 -85 356 -107 451 -84 22 5 45 11 50 12 48 11 155
81 217 141 166 159 248 324 248 502 0 245 -152 433 -411 510 -56 17 -59 17
-129 29 -53 9 -210 9 -260 0 -55 -9 -228 -54 -274 -71 -321 -118 -465 -155
-631 -160 -185 -6 -311 32 -419 127 -111 98 -162 226 -153 386 7 127 18 173
74 289 93 194 272 331 498 380 17 3 77 7 135 9 113 3 178 -6 379 -56 68 -17
136 -33 150 -35 14 -3 34 -7 43 -10 59 -18 230 -26 286 -13 20 4 48 10 62 12
76 14 206 85 267 147 46 45 92 117 104 164 16 57 6 153 -20 205 -50 98 -139
164 -261 196 -69 18 -196 23 -270 10 -75 -13 -93 -15 -145 -16 -86 -1 -135 32
-135 92 0 53 54 75 136 53 69 -18 64 -18 64 11 0 19 -6 25 -32 29 -74 12 -95
12 -143 1z"/>
<path d="M2432 8679 c34 -45 130 -97 212 -113 71 -15 249 -72 290 -94 70 -38
83 -72 56 -152 -11 -32 -20 -62 -20 -65 0 -15 29 -2 54 24 72 76 26 190 -100
247 -28 12 -127 41 -220 65 -169 42 -260 77 -271 104 -3 8 -9 15 -14 15 -5 0
1 -14 13 -31z"/>
<path d="M2968 8613 c-27 -7 -21 -22 10 -28 15 -3 49 -17 76 -31 53 -28 63
-27 47 5 -19 35 -90 63 -133 54z"/>
<path d="M3144 8420 c-2 -107 -45 -180 -147 -250 -50 -34 -47 -45 6 -19 131
67 179 130 180 233 0 66 -6 86 -26 86 -8 0 -13 -18 -13 -50z"/>
<path d="M2878 8158 c-36 -13 -36 -30 -1 -24 30 6 68 37 43 35 -8 0 -27 -5
-42 -11z"/>
<path d="M3360 8055 c-92 -75 -247 -144 -356 -161 -22 -3 -50 -7 -64 -10 -43
-7 -176 -14 -410 -19 -259 -7 -285 -9 -400 -36 -100 -23 -158 -55 -221 -120
-67 -69 -92 -128 -93 -214 -1 -104 40 -165 148 -219 104 -52 142 -29 49 29
-144 91 -173 162 -116 278 81 164 215 223 503 220 135 -2 349 -2 375 -2 118 4
344 54 435 96 99 47 220 150 220 188 0 22 -10 18 -70 -30z"/>
<path d="M1955 8023 c-110 -23 -223 -94 -225 -140 0 -18 3 -17 83 26 40 22 99
47 132 57 59 17 165 21 215 9 14 -3 39 -9 55 -13 45 -10 249 -7 269 5 13 7
-13 11 -96 16 -63 3 -126 11 -141 16 -15 6 -40 13 -55 17 -34 7 -210 13 -237
7z"/>
<path d="M1782 7798 c-142 -137 -155 -389 -32 -599 102 -173 264 -246 418
-188 28 11 52 24 52 29 0 4 -39 8 -87 8 -197 0 -341 106 -409 301 -19 53 -23
84 -21 161 2 112 28 179 102 266 55 64 38 82 -23 22z"/>
<path d="M1610 7790 c-8 -5 -11 -12 -8 -16 10 -9 38 3 38 16 0 12 -10 13 -30
0z"/>
<path d="M1555 7674 c-39 -39 -66 -106 -69 -170 -3 -68 29 -174 74 -240 33
-48 97 -114 111 -114 22 0 9 32 -38 94 -109 144 -124 254 -59 410 9 22 14 41
12 43 -2 2 -16 -8 -31 -23z"/>
<path d="M2880 6997 c0 -8 12 -12 33 -11 17 1 40 2 50 3 9 1 17 6 17 11 0 6
-22 10 -50 10 -34 0 -50 -4 -50 -13z"/>
<path d="M3063 7004 c-24 -11 -13 -22 34 -33 61 -16 89 -31 143 -80 48 -43 70
-51 70 -26 0 20 -78 99 -119 119 -33 18 -108 29 -128 20z"/>
<path d="M2750 6908 c-146 -45 -273 -72 -392 -84 -38 -4 -68 -10 -68 -15 0 -8
87 -5 205 6 56 6 230 41 244 50 6 3 92 15 145 20 72 6 187 -38 245 -94 127
-121 151 -281 58 -382 -32 -35 -110 -99 -120 -99 -10 0 -81 -51 -89 -63 -23
-37 35 -20 126 37 102 66 174 171 179 263 7 141 -102 296 -250 354 -80 31
-196 34 -283 7z"/>
<path d="M1477 6914 c-17 -17 63 -114 130 -158 42 -28 166 -71 228 -80 117
-17 183 -22 310 -20 181 2 257 12 500 69 258 61 462 -64 364 -222 -29 -46 -60
-75 -141 -129 -70 -47 -83 -64 -47 -64 62 0 205 104 243 178 49 94 23 199 -61
251 -105 66 -267 71 -463 16 -66 -19 -147 -35 -213 -42 -87 -10 -369 -9 -426
2 -20 4 -50 9 -67 11 -63 8 -164 45 -216 80 -50 34 -108 90 -108 107 0 9 -24
9 -33 1z"/>
<path d="M2005 6800 c-18 -7 -18 -9 8 -19 32 -12 122 -14 152 -2 19 8 19 8 -4
16 -34 10 -132 14 -156 5z"/>
<path d="M3375 6760 c-3 -6 -1 -35 5 -64 35 -168 -9 -321 -131 -450 -88 -95
-197 -143 -333 -147 -48 -2 -55 -4 -44 -15 7 -8 37 -16 66 -20 158 -17 372
133 459 322 37 81 51 143 48 216 -3 87 -49 191 -70 158z"/>
<path d="M2115 6289 c-33 -10 -79 -28 -102 -40 -42 -22 -123 -95 -123 -111 0
-18 22 -6 60 32 71 71 173 109 285 105 78 -3 121 -10 290 -50 154 -37 264 -50
326 -40 51 9 39 22 -26 28 -27 3 -120 19 -205 37 -85 17 -166 33 -180 35 -14
2 -47 8 -73 13 -79 16 -186 12 -252 -9z"/>
<path d="M1826 6075 c-20 -30 -25 -66 -10 -72 8 -3 21 18 52 89 9 20 -28 5
-42 -17z"/>
<path d="M2240 5966 c-136 -41 -210 -118 -210 -221 0 -53 21 -43 54 26 33 69
91 124 150 142 43 13 209 15 262 4 18 -4 106 -26 195 -48 208 -53 315 -58 494
-25 64 12 119 32 123 45 5 14 -52 12 -168 -6 -49 -7 -257 -7 -303 1 -20 3
-108 24 -195 47 -180 46 -324 59 -402 35z"/>
<path d="M1689 5861 c-64 -50 -93 -180 -65 -291 31 -122 86 -207 172 -263 59
-40 96 -47 228 -48 125 -1 173 -12 227 -50 65 -46 58 -113 -20 -207 -34 -40
-46 -63 -41 -72 10 -17 40 -4 87 38 93 84 94 206 2 285 -59 51 -118 65 -292
71 -124 4 -171 22 -234 89 -68 73 -88 127 -88 237 0 89 2 99 33 152 44 79 41
99 -9 59z"/>
<path d="M1723 5743 c-4 -15 -8 -53 -7 -83 3 -133 116 -240 262 -246 46 -2 62
0 62 10 0 12 -28 22 -115 43 -129 30 -189 104 -184 228 3 72 -4 90 -18 48z"/>
<path d="M2105 5469 c-10 -15 -7 -16 70 -23 261 -21 366 -83 389 -227 6 -38
20 -56 31 -38 12 19 7 96 -9 134 -22 53 -139 127 -220 140 -17 3 -42 7 -56 10
-61 11 -199 14 -205 4z"/>
<path d="M2175 5380 c-7 -12 2 -15 68 -30 65 -14 140 -53 166 -86 15 -20 21
-41 21 -80 0 -60 21 -75 37 -26 38 109 -91 231 -244 232 -23 0 -45 -5 -48 -10z"/>
<path d="M2110 4873 c-18 -20 -42 -57 -53 -82 -25 -56 -27 -142 -5 -165 28
-27 33 -18 34 57 1 77 16 121 61 169 15 16 23 33 20 42 -9 24 -22 19 -57 -21z"/>
<path d="M2107 4538 c-10 -31 44 -98 78 -98 15 0 1 41 -26 73 -32 39 -45 45
-52 25z"/>
</g>
</svg>
